<?xml version="1.0" encoding="UTF-8"?>
<svg version="1.1" xmlns="http://www.w3.org/2000/svg" width="512" height="512">
<path d="M0 0 C2.82766519 1.12763 4.38213902 2.72680416 6.53147507 4.88400364 C7.40363159 5.75203617 8.27578812 6.6200687 9.17437363 7.51440525 C10.13284153 8.48349016 11.09116495 9.452718 12.04935837 10.42207432 C13.06406936 11.43763155 14.07944146 12.45252859 15.09542465 13.46681309 C17.85185796 16.22238491 20.59893742 18.98711512 23.34445095 21.75356126 C26.21519084 24.64304226 29.09441641 27.52404194 31.97275925 30.40594578 C37.42209259 35.86460711 42.86373285 41.33087143 48.30266213 46.79989713 C54.49502524 53.02578072 60.69589891 59.24315802 66.89750814 65.45982945 C79.65456999 78.24825741 92.40058083 91.04764707 105.14017868 103.8534708 C105.47017868 96.2634708 105.80017868 88.6734708 106.14017868 80.8534708 C156.64537988 71.64047907 207.15643304 62.45918322 257.68234158 53.36036491 C259.00224181 53.12266818 260.32214137 52.88496772 261.64204025 52.64726353 C262.29268355 52.53008785 262.94332686 52.41291218 263.61368662 52.29218572 C268.20906949 51.4643573 272.80401665 50.63415026 277.39881516 49.80308628 C283.61781081 48.67837318 289.8375524 47.55788218 296.05789757 46.44065762 C298.35819693 46.0267888 300.65822997 45.61143677 302.9579792 45.1945219 C306.10572805 44.62415305 309.25439751 44.05917182 312.40336227 43.49556065 C313.32410129 43.32743524 314.2448403 43.15930983 315.19348049 42.98608971 C316.46554962 42.76012124 316.46554962 42.76012124 317.76331711 42.52958775 C318.49292334 42.39810526 319.22252956 42.26662277 319.97424507 42.13115597 C322.38225683 41.82243499 324.71504953 41.80744255 327.14017868 41.8534708 C327.18600772 74.62725157 327.22122405 107.401024 327.24230934 140.17482952 C327.2448106 144.04858565 327.24739926 147.92234172 327.25004196 151.79609776 C327.25082889 152.95283654 327.25082889 152.95283654 327.25163172 154.13294379 C327.26032216 166.60133407 327.27608461 179.06970582 327.29448427 191.53808513 C327.31322124 204.34231725 327.32430342 217.14653971 327.32835567 229.95078498 C327.33109286 237.84463814 327.33972201 245.7384389 327.35601161 253.63227592 C327.36788442 259.69656019 327.36908047 265.76079987 327.36639404 271.82509708 C327.36694245 274.30459064 327.37089641 276.78408625 327.37858963 279.26356792 C327.46500103 308.5603656 327.46500103 308.5603656 324.0082531 316.43061447 C323.01831247 319.19360792 322.98031165 320.18864012 324.14017868 322.8534708 C325.59659715 324.73720792 325.59659715 324.73720792 327.49409103 326.53450108 C328.21211395 327.24942219 328.93013687 327.9643433 329.66991806 328.70092869 C330.85910088 329.86214993 330.85910088 329.86214993 332.07230759 331.04683018 C332.9031134 331.87004261 333.73391922 332.69325504 334.58990097 333.54141331 C336.39608219 335.32946956 338.20563744 337.11412246 340.01812744 338.89578342 C342.88209033 341.71231575 345.73609805 344.53855516 348.58680344 347.36848545 C356.18147286 354.90397457 363.79206566 362.42331265 371.411219 369.9340415 C376.41910215 374.87075996 381.41982485 379.8144893 386.40713632 384.77199697 C388.77594581 387.12568199 391.14959398 389.47412802 393.53482056 391.81115818 C396.19013221 394.41633503 398.82997689 397.03628156 401.46683884 399.66011143 C402.66209435 400.82133266 402.66209435 400.82133266 403.88149643 402.00601292 C404.95007133 403.07839458 404.95007133 403.07839458 406.04023361 404.17244053 C406.97989692 405.0993457 406.97989692 405.0993457 407.93854332 406.04497623 C409.14017868 407.8534708 409.14017868 407.8534708 408.91163826 409.97957706 C407.43786445 413.55940883 404.53255929 415.97283778 401.82767868 418.6659708 C401.24566696 419.2763419 400.66365524 419.88671299 400.06400681 420.51558018 C399.49488571 421.0872794 398.92576462 421.65897861 398.33939743 422.24800205 C397.82208054 422.77240879 397.30476364 423.29681553 396.77177048 423.83711338 C395.14017868 424.8534708 395.14017868 424.8534708 393.23276056 424.58826229 C390.88403928 423.76352973 389.7783254 422.8658244 388.02727675 421.11316437 C387.43345336 420.52608285 386.83962997 419.93900134 386.22781193 419.33412948 C385.2617146 418.35621059 385.2617146 418.35621059 384.27610016 417.35853577 C383.58262832 416.66852546 382.88915648 415.97851515 382.17467034 415.26759544 C379.8325518 412.93347248 377.50136304 410.58872423 375.1699028 408.24395847 C373.48417266 406.5595355 371.79778386 404.87577148 370.11079049 403.19261366 C366.43409546 399.52124384 362.76211956 395.84522049 359.09418869 392.16509724 C353.64005908 386.69288817 348.17737794 381.22927668 342.7128846 375.76741911 C333.52170883 366.58018846 324.33754206 357.38598112 315.15732193 348.18780422 C306.06512723 339.07787048 296.96984791 329.9710348 287.87041092 320.86833477 C287.30505639 320.30277402 286.73970186 319.73721328 286.15721538 319.15451433 C283.28615694 316.28244092 280.4150431 313.41042291 277.54390791 310.53842623 C257.1972732 290.18548696 236.85760568 269.8255981 216.52201462 249.4616251 C196.76381458 229.67588078 177.00247243 209.89328338 157.23685837 190.11494541 C156.62780966 189.50550213 156.01876095 188.89605884 155.39125622 188.26814758 C149.27504587 182.14798173 143.15877147 176.02787988 137.04245016 169.90782493 C124.58232527 157.440091 112.1226279 144.97192987 99.66318893 132.50351048 C99.09029861 131.93020828 98.51740829 131.35690609 97.92715766 130.76623111 C59.6576697 92.46913192 21.39818062 54.16204386 -16.85982132 15.8534708 C-15.91051937 14.74244747 -14.96071409 13.6318542 -14.01070023 12.52143955 C-13.48183212 11.90293125 -12.95296402 11.28442295 -12.40806961 10.64717197 C-10.40508018 8.32663689 -8.3532512 6.06921371 -6.23482132 3.8534708 C-5.50005569 3.0697208 -4.76529007 2.2859708 -4.00825882 1.4784708 C-1.85982132 -0.1465292 -1.85982132 -0.1465292 0 0 Z M296.30625534 134.76460361 C294.51841377 135.06751316 294.51841377 135.06751316 292.69445419 135.37654209 C291.37719816 135.60316534 290.05995304 135.82985203 288.74271774 136.0565958 C287.35303123 136.29333027 285.96329504 136.52977322 284.57351303 136.76594639 C280.80269889 137.40759169 277.03259336 138.05331591 273.2626009 138.69976902 C269.32186721 139.3747873 265.38049565 140.04606004 261.43918991 140.71772861 C253.97672433 141.99005198 246.51483938 143.26574779 239.05315661 144.54265308 C230.55790272 145.99626288 222.0620092 147.44611669 213.56605959 148.89565372 C196.09005041 151.87741093 178.61485098 154.86388929 161.14017868 157.8534708 C161.14017868 161.9015884 162.51178812 162.61999531 165.32484055 165.4729166 C165.77514275 165.93354331 166.22544496 166.39417001 166.68939269 166.8687551 C168.20664868 168.41681246 169.73456501 169.95388922 171.26273727 171.49116611 C172.35051866 172.59610224 173.437714 173.70161557 174.52436447 174.80766392 C177.48395465 177.81522935 180.45372886 180.81252869 183.42692137 183.80664253 C185.2841547 185.67710255 187.13986115 187.5490652 188.99517822 189.42142582 C194.80012859 195.27816691 200.61188282 201.12804445 206.43252122 206.96919465 C213.15257482 213.71327143 219.84891724 220.4797831 226.52586114 227.26653695 C231.68708061 232.50969437 236.86923639 237.73155151 242.06760275 242.93787932 C245.17240526 246.0484321 248.26750713 249.16737001 251.34093475 252.30895329 C254.23419403 255.26526699 257.1525686 258.19425185 260.0921402 261.10449696 C261.16513047 262.17572608 262.22880062 263.2563871 263.28207779 264.34700489 C268.7245604 270.32031953 268.7245604 270.32031953 275.94799805 273.25338078 C278.46938098 273.01248256 280.70572158 272.53050297 283.14017868 271.8534708 C285.30520978 271.74863258 287.47265575 271.6799368 289.64017868 271.6659708 C291.14064743 271.64470127 291.14064743 271.64470127 292.67142868 271.62300205 C297.21214639 271.92469388 301.67782167 272.9609994 306.14017868 273.8534708 C306.14017868 227.6534708 306.14017868 181.4534708 306.14017868 133.8534708 C302.65867924 133.8534708 299.71933607 134.18158627 296.30625534 134.76460361 Z " fill="#1C1C1B" transform="translate(56.85982131958008,46.14652919769287)"/>
<path d="M0 0 C2.31 1.98 4.62 3.96 7 6 C8.28944147 6.92043674 9.58967641 7.82639098 10.90963745 8.70249939 C16.54470794 12.92046175 21.0509486 17.29400376 22.84098053 24.28398514 C24.07464593 33.40023738 23.84481842 42.56833539 23.61970377 51.74344373 C23.53614445 55.77912891 23.5370372 59.81488798 23.52755737 63.8513031 C23.50006726 70.62465343 23.4179057 77.39543475 23.29638672 84.16772461 C23.12589903 93.67683583 23.05885986 103.18465708 23.01053262 112.69505799 C22.97299928 119.3314652 22.91110831 125.96768365 22.8443923 132.60385394 C22.82838289 134.19952401 22.81296728 135.79520015 22.79815531 137.39088178 C22.75483581 141.94429057 22.69590824 146.4970014 22.61372375 151.04988098 C22.58010534 153.06510121 22.55968916 155.08052867 22.53988647 157.09593201 C22.18247618 174.1959637 18.47905756 189.16114612 6.41015625 201.75390625 C-3.55726028 211.04282766 -15.74432223 217.08809701 -29 220 C-30.485 220.3403125 -30.485 220.3403125 -32 220.6875 C-44.93305493 222.03469322 -57.52433696 220.64440124 -68.04296875 212.3984375 C-75.16232501 205.74965703 -77.65351711 199.0558764 -78.08984375 189.3671875 C-77.71741492 175.40920257 -70.73495687 164.79895414 -60.87109375 155.35546875 C-53.02824711 148.92113335 -43.61881399 144.15099079 -34 141 C-33.33484375 140.77570313 -32.6696875 140.55140625 -31.984375 140.3203125 C-26.85501745 138.89114036 -21.72740266 138.79796026 -16.4375 138.75 C-15.72907959 138.7406543 -15.02065918 138.73130859 -14.29077148 138.72167969 C-13.24771851 138.72796387 -13.24771851 138.72796387 -12.18359375 138.734375 C-11.57056396 138.73663086 -10.95753418 138.73888672 -10.32592773 138.74121094 C-6.82417083 139.13082596 -3.41816618 140.14545845 0 141 C0 94.47 0 47.94 0 0 Z " fill="#1C1C1A" transform="translate(163,209)"/>
<path d="M0 0 C6.18358312 5.11854711 11.85237565 10.68873383 17.52734375 16.359375 C18.52617874 17.35499113 19.52508645 18.35053431 20.52406311 19.3460083 C22.60252791 21.41852463 24.67895582 23.49305714 26.75415039 25.56884766 C29.4179043 28.23270403 32.08852247 30.88956537 34.76087093 33.54479599 C36.81881496 35.59165784 38.87223482 37.64301155 40.92437935 39.69568634 C41.90800418 40.67812936 42.89325497 41.65894721 43.8801403 42.63811493 C45.25154804 43.9997812 46.61607018 45.36837193 47.98022461 46.73730469 C48.75853134 47.5141864 49.53683807 48.29106812 50.33872986 49.0914917 C52 51 52 51 52 53 C50.10546779 53.64964023 48.20931351 54.29455115 46.3125 54.9375 C44.72888672 55.47697266 44.72888672 55.47697266 43.11328125 56.02734375 C30.95669394 59.82532398 17.63117945 59.18536807 6 54 C-2.40760966 49.08995596 -7.4722311 42.40535333 -10 33 C-11.52770504 21.94165803 -8.59538135 11.78669152 -2.1875 2.6875 C-1.1046875 1.3571875 -1.1046875 1.3571875 0 0 Z " fill="#1C1C1A" transform="translate(295,341)"/>
</svg>
